<?xml version="1.0" encoding="utf-8"?>
<!-- Generator: Adobe Illustrator 24.1.0, SVG Export Plug-In . SVG Version: 6.00 Build 0)  -->
<svg version="1.1" id="Слой_1" xmlns="http://www.w3.org/2000/svg" xmlns:xlink="http://www.w3.org/1999/xlink" x="0px" y="0px"
	 viewBox="0 0 1080 1080" style="enable-background:new 0 0 1080 1080;" xml:space="preserve">
<style type="text/css">
	.st0{fill-rule:evenodd;clip-rule:evenodd;fill:#FFFFFF;}
</style>
<path class="st0" d="M667.81,847.55c-0.37,0-0.67-0.31-0.67-0.68s0.3-0.68,0.67-0.68c0.39,0,0.69,0.31,0.69,0.68
	S668.2,847.55,667.81,847.55z M675.3,847.55c-0.39,0-0.69-0.31-0.69-0.68s0.3-0.68,0.69-0.68c0.37,0,0.67,0.31,0.67,0.68
	S675.67,847.55,675.3,847.55z M660.88,850.76c-1.01,0-1.83,0.8-1.83,1.78v7.5c0,0.99,0.82,1.8,1.83,1.8s1.81-0.8,1.81-1.8v-7.5
	C662.7,851.56,661.88,850.76,660.88,850.76z M679.7,851.09h-16.29v11.61c0,1.06,0.87,1.92,1.95,1.92h1.31l0.02,3.96
	c0,0.99,0.82,1.8,1.81,1.8c1.01,0,1.83-0.8,1.83-1.8v-3.96h2.45v3.96c0,0.99,0.82,1.8,1.83,1.8s1.83-0.8,1.83-1.8v-3.96h1.33
	c1.07,0,1.93-0.85,1.93-1.92L679.7,851.09L679.7,851.09z M675.58,844.03l1.26-2.28c0.07-0.12,0.03-0.28-0.09-0.35
	c-0.12-0.05-0.28-0.02-0.35,0.1l-1.28,2.3c-1.08-0.47-2.29-0.73-3.57-0.73s-2.48,0.26-3.57,0.73l-1.28-2.3
	c-0.07-0.12-0.23-0.16-0.36-0.1c-0.12,0.07-0.16,0.23-0.09,0.35l1.26,2.28c-2.5,1.26-4.19,3.66-4.19,6.44h16.42
	C679.75,847.69,678.07,845.28,675.58,844.03z M684.05,852.54c0-0.99-0.82-1.78-1.83-1.78c-0.99,0-1.81,0.79-1.81,1.78v7.5
	c0,0.99,0.82,1.8,1.81,1.8c1.01,0,1.83-0.8,1.83-1.8V852.54z"/>
<path class="st0" d="M451.21,297.41c-10.84,0-19.64-9.15-19.64-19.85c0-10.67,8.8-19.82,19.64-19.82c11.4,0,20.2,9.15,20.2,19.82
	C471.41,288.26,462.61,297.41,451.21,297.41z M669.53,297.41c-11.4,0-20.2-9.15-20.2-19.85c0-10.67,8.8-19.82,20.2-19.82
	c10.84,0,19.64,9.15,19.64,19.82C689.17,288.26,680.37,297.41,669.53,297.41z M249.48,390.9c-29.49,0-53.27,23.4-53.27,51.85V661.3
	c0,28.97,23.78,52.34,53.27,52.34s52.78-23.37,52.78-52.34V442.75C302.26,414.3,278.45,390.9,249.48,390.9z M797.79,400.58H322.95
	v338.48c0,31.01,25.33,55.93,56.89,55.93h38.27l0.52,115.35c0,28.97,23.81,52.37,52.78,52.37c29.46,0,53.27-23.4,53.27-52.37V794.98
	h71.37v115.35c0,28.97,23.81,52.37,53.27,52.37c29.49,0,53.3-23.4,53.3-52.37V794.98h38.79c31.04,0,56.36-24.92,56.36-55.93V400.58z
	 M677.8,194.73l36.72-66.59c2.07-3.56,1.02-8.13-2.59-10.14c-3.61-1.54-8.28-0.52-10.35,3.03l-37.25,67.09
	c-31.56-13.73-66.74-21.33-103.98-21.33c-37.22,0-72.39,7.61-103.96,21.33l-37.25-67.09c-2.07-3.56-6.73-4.58-10.35-3.03
	c-3.61,2.01-4.66,6.59-2.59,10.14l36.72,66.59c-72.92,36.58-122.05,106.72-122.05,187.54h478.48
	C799.36,301.46,750.2,231.31,677.8,194.73z M924.53,442.75c0-28.97-23.81-51.85-53.27-51.85c-28.97,0-52.78,22.88-52.78,51.85V661.3
	c0,28.97,23.81,52.34,52.78,52.34c29.46,0,53.27-23.37,53.27-52.34V442.75z"/>
</svg>
