<?xml version="1.0" encoding="utf-8"?>
<!-- Generator: Adobe Illustrator 24.1.0, SVG Export Plug-In . SVG Version: 6.00 Build 0)  -->
<svg version="1.1" id="Слой_1" xmlns="http://www.w3.org/2000/svg" xmlns:xlink="http://www.w3.org/1999/xlink" x="0px" y="0px"
	 viewBox="0 0 1080 1080" style="enable-background:new 0 0 1080 1080;" xml:space="preserve">
<style type="text/css">
	.st0{fill-rule:evenodd;clip-rule:evenodd;fill:#FFFFFF;}
</style>
<path class="st0" d="M667.81,847.55c-0.37,0-0.67-0.31-0.67-0.68c0-0.37,0.3-0.68,0.67-0.68c0.39,0,0.69,0.31,0.69,0.68
	C668.5,847.24,668.2,847.55,667.81,847.55z M675.3,847.55c-0.39,0-0.69-0.31-0.69-0.68c0-0.37,0.3-0.68,0.69-0.68
	c0.37,0,0.67,0.31,0.67,0.68C675.97,847.24,675.67,847.55,675.3,847.55z M660.88,850.76c-1.01,0-1.83,0.8-1.83,1.78v7.5
	c0,0.99,0.82,1.8,1.83,1.8c1.01,0,1.81-0.8,1.81-1.8v-7.5C662.7,851.56,661.88,850.76,660.88,850.76z M679.7,851.09h-16.29v11.61
	c0,1.06,0.87,1.92,1.95,1.92h1.31l0.02,3.96c0,0.99,0.82,1.8,1.81,1.8c1.01,0,1.83-0.8,1.83-1.8v-3.96h2.45v3.96
	c0,0.99,0.82,1.8,1.83,1.8c1.01,0,1.83-0.8,1.83-1.8v-3.96h1.33c1.07,0,1.93-0.85,1.93-1.92V851.09z M675.58,844.03l1.26-2.28
	c0.07-0.12,0.03-0.28-0.09-0.35c-0.12-0.05-0.28-0.02-0.35,0.1l-1.28,2.3c-1.08-0.47-2.29-0.73-3.57-0.73
	c-1.28,0-2.48,0.26-3.57,0.73l-1.28-2.3c-0.07-0.12-0.23-0.16-0.36-0.1c-0.12,0.07-0.16,0.23-0.09,0.35l1.26,2.28
	c-2.5,1.26-4.19,3.66-4.19,6.44h16.42C679.75,847.69,678.07,845.28,675.58,844.03z M684.05,852.54c0-0.99-0.82-1.78-1.83-1.78
	c-0.99,0-1.81,0.79-1.81,1.78v7.5c0,0.99,0.82,1.8,1.81,1.8c1.01,0,1.83-0.8,1.83-1.8V852.54z"/>
<path class="st0" d="M896.11,707.05c-30.14-8.78-57.23-29.32-80.72-61.6c-23.53-32.27-35.26-68.95-35.26-109.03
	c0-37.16,11.22-70.92,33.19-101.23c12.27-17.12,31.7-36.17,58.24-57.7c-17.36-20.51-35.26-37.16-53.12-48.89
	c-31.66-21.02-67.97-31.77-108.82-31.77c-25.05,0-54.68,5.86-88.41,16.61c-33.7,11.26-58.24,16.61-73.06,16.61
	c-11.76,0-35.26-4.88-70.51-14.65c-35.77-9.8-65.4-14.68-90.45-14.68c-58.75,0-106.79,23.46-145.1,70.41
	c-38.31,47.43-57.73,108.04-57.73,182.86c0,80.18,25.56,161.84,75.12,245.92c50.58,84.11,101.16,126.65,153.78,126.65
	c16.85,0,39.36-5.39,67.46-16.65c27.56-10.75,52.11-16.14,72.55-16.14c20.95,0,46.99,4.92,77.16,15.66
	c30.65,10.27,54.14,15.63,71.53,15.63c43.43,0,87.36-31.77,131.3-95.8C862.89,786.75,883.33,745.66,896.11,707.05z M703.99,133.54
	c0-3.42-0.51-6.37-0.51-9.8c-0.51-2.92-1.53-6.34-2.58-10.75c-59.26,13.19-102.18,37.16-127.71,72.34
	c-25.56,35.22-38.85,77.26-39.87,125.67c24-1.97,41.39-4.88,53.12-8.31c18.41-5.86,36.82-17.63,55.19-35.22
	c21.46-20.54,37.29-43.02,47.53-67.46C698.88,176.06,703.99,153.58,703.99,133.54z"/>
</svg>
