<?xml version="1.0" encoding="utf-8"?>
<!-- Generator: Adobe Illustrator 24.1.0, SVG Export Plug-In . SVG Version: 6.00 Build 0)  -->
<svg version="1.1" id="Слой_1" xmlns="http://www.w3.org/2000/svg" xmlns:xlink="http://www.w3.org/1999/xlink" x="0px" y="0px"
	 viewBox="0 0 1080 1080" style="enable-background:new 0 0 1080 1080;" xml:space="preserve">
<style type="text/css">
	.st0{fill-rule:evenodd;clip-rule:evenodd;}
</style>
<path class="st0" d="M551,435.04c0-2.31-1.22-4.36-3.04-5.91l-15.15-12.84c-1.83-1.54-4.55-2.56-6.97-2.56
	c-2.43,0-5.16,1.02-6.98,2.56L377.62,535.95c-1.83,1.55-3.04,3.86-3.04,5.91c0,2.07,1.22,4.37,3.04,5.91l141.24,119.67
	c1.83,1.54,4.55,2.56,6.98,2.56c2.42,0,5.14-1.02,6.97-2.56l15.15-12.84c1.83-1.54,3.04-3.86,3.04-5.91c0-2.05-1.22-4.36-3.04-5.91
	L428.83,541.86l119.12-100.92C549.78,439.41,551,437.09,551,435.04z"/>
</svg>
