<?xml version="1.0" encoding="utf-8"?>
<!-- Generator: Adobe Illustrator 24.1.0, SVG Export Plug-In . SVG Version: 6.00 Build 0)  -->
<svg version="1.1" id="Слой_1" xmlns="http://www.w3.org/2000/svg" xmlns:xlink="http://www.w3.org/1999/xlink" x="0px" y="0px"
	 viewBox="0 0 1080 1080" style="enable-background:new 0 0 1080 1080;" xml:space="preserve">
<style type="text/css">
	.st0{fill-rule:evenodd;clip-rule:evenodd;}
</style>
<path class="st0" d="M629.2,540c0-2.08-1.22-4.43-3.08-6.01L482.8,412.33c-1.84-1.56-4.61-2.6-7.07-2.6s-5.23,1.04-7.08,2.6
	l-15.37,13.06c-1.84,1.58-3.08,3.92-3.08,6.01s1.24,4.44,3.08,6.01L574.15,540L453.28,642.6c-1.84,1.58-3.08,3.92-3.08,6.01
	c0,2.36,1.24,4.44,3.08,6.01l15.37,13.06c1.86,1.56,4.62,2.6,7.08,2.6s5.23-1.04,7.07-2.6l143.32-121.67
	C627.97,544.45,629.2,542.1,629.2,540z"/>
</svg>
